<svg xmlns="http://www.w3.org/2000/svg" version="1.1" xmlns:xlink="http://www.w3.org/1999/xlink" xmlns:svgjs="http://svgjs.dev/svgjs" width="100%" height="100%" viewBox="0 0 1000 600"><rect width="1000" height="600" x="0" y="0" fill="#ffffff"/><g><circle r="166.66666666666666" cx="411.41967264811194" cy="433.6419136717086" fill="#ffffff" transform="matrix(0.5107189778139852,0,0,0.5107189778139851,0,78.53085688349354)"/><path d="M431.78044027907623 467.9203618949249L421.7484127753092 467.9203618949249Q391.9349225880577 467.9203618949249 391.9349225880577 438.1068717076734L391.9349225880577 438.1068717076734L391.9349225880577 430.7594712823792Q391.9349225880577 400.9459810951277 421.7484127753092 400.9459810951277L421.7484127753092 400.9459810951277L431.78044027907623 400.9459810951277Q437.2344721332369 400.9459810951277 441.6994308532234 401.96331346170695L441.6994308532234 401.96331346170695L441.6994308532234 388.4271411397226Q441.6994308532234 376.530004297227 431.78044027907623 376.530004297227L431.78044027907623 376.530004297227L396.0042520543745 376.530004297227Q381.11163657695124 376.530004297227 381.11163657695124 393.40076604299867L381.11163657695124 393.40076604299867L381.11163657695124 473.88305993237515Q381.11163657695124 490.7820809105519 396.0042520543745 490.7820809105519L396.0042520543745 490.7820809105519L422.8505228391033 490.7820809105519L422.8505228391033 508.64191579049776L396.0042520543745 508.64191579049776Q361.2453961962519 508.64191579049776 361.2453961962519 473.88305993237515L361.2453961962519 473.88305993237515L361.2453961962519 393.40076604299867Q361.2453961962519 358.64191018487605 396.0042520543745 358.64191018487605L396.0042520543745 358.64191018487605L431.78044027907623 358.64191018487605Q461.5939304663278 358.64191018487605 461.5939304663278 388.4271411397226L461.5939304663278 388.4271411397226L461.5939304663278 462.94673699164883L442.71676321980266 471.9049136640267L441.6994308532234 471.9049136640267L441.6994308532234 466.93128876075065Q437.2344721332369 467.9203618949249 431.78044027907623 467.9203618949249L431.78044027907623 467.9203618949249ZM421.7484127753092 450.032267782574L421.7484127753092 450.032267782574L431.78044027907623 450.032267782574Q441.6994308532234 450.032267782574 441.6994308532234 438.1068717076734L441.6994308532234 438.1068717076734L441.6994308532234 430.7594712823792Q441.6994308532234 418.83407520747863 431.78044027907623 418.83407520747863L431.78044027907623 418.83407520747863L421.7484127753092 418.83407520747863Q411.801162968757 418.83407520747863 411.801162968757 430.7594712823792L411.801162968757 430.7594712823792L411.801162968757 438.1068717076734Q411.801162968757 450.032267782574 421.7484127753092 450.032267782574Z " fill="#000000" transform="matrix(0.5107189778139852,0,0,0.5107189778139851,0,78.53085688349354)"/><path d="M723.6736820626833 504.85836385464387L694.4250265386165 504.85836385464387Q661.4196629655872 504.85836385464387 661.4196629655872 471.85300028161447L661.4196629655872 471.85300028161447L661.4196629655872 461.4683858891247L679.3176934560023 452.9621255211163L680.2837040971641 452.9621255211163L680.2837040971641 471.85300028161447Q680.2837040971641 487.87267674754827 694.4250265386165 487.87267674754827L694.4250265386165 487.87267674754827L723.6736820626833 487.87267674754827Q737.8150045041356 487.87267674754827 737.8150045041356 471.85300028161447L737.8150045041356 471.85300028161447L737.8150045041356 452.0229485088757Q737.8150045041356 436.0032720429419 723.6736820626833 436.0032720429419L723.6736820626833 436.0032720429419L698.2085682165003 436.0032720429419Q669.8990897046743 436.0032720429419 669.8990897046743 407.6937935311159L669.8990897046743 407.6937935311159L669.8990897046743 390.7081064240203Q669.8990897046743 362.3986279121943 698.2085682165003 362.3986279121943L698.2085682165003 362.3986279121943L719.8901403847993 362.3986279121943Q748.1996188966253 362.3986279121943 748.1996188966253 390.7081064240203L748.1996188966253 390.7081064240203L748.1996188966253 395.69916140335647L730.2747547772891 404.20542177136485L729.3355777650485 404.20542177136485L729.3355777650485 390.7081064240203Q729.3355777650485 379.3843150192899 719.8901403847993 379.3843150192899L719.8901403847993 379.3843150192899L698.2085682165003 379.3843150192899Q688.7631308362513 379.3843150192899 688.7631308362513 390.7081064240203L688.7631308362513 390.7081064240203L688.7631308362513 407.6937935311159Q688.7631308362513 419.01758493584634 698.2085682165003 419.01758493584634L698.2085682165003 419.01758493584634L723.6736820626833 419.01758493584634Q756.6790456357127 419.01758493584634 756.6790456357127 452.0229485088757L756.6790456357127 452.0229485088757L756.6790456357127 471.85300028161447Q756.6790456357127 504.85836385464387 723.6736820626833 504.85836385464387L723.6736820626833 504.85836385464387ZM799.3176819914391 508.6419055325277L798.3785049791985 508.6419055325277L798.3785049791985 418.26624332605377L774.147738063389 418.26624332605377L774.147738063389 417.3002326848919L781.7684886769991 401.09272081651005L798.3785049791985 401.09272081651005L798.3785049791985 367.12134660231885L816.3033690985347 358.64191986323164L817.2425461107754 358.64191986323164L817.2425461107754 401.09272081651005L841.500146655506 401.09272081651005L841.500146655506 402.0318978287507L833.8525624129747 418.26624332605377L817.2425461107754 418.26624332605377L817.2425461107754 500.1356451645193L799.3176819914391 508.6419055325277ZM907.9938791221456 504.85836385464387L886.3123069538466 504.85836385464387Q858.0028284420207 504.85836385464387 858.0028284420207 476.5488853428178L858.0028284420207 476.5488853428178L858.0028284420207 429.3753656994149Q858.0028284420207 401.09272081651005 886.3123069538466 401.09272081651005L886.3123069538466 401.09272081651005L907.9938791221456 401.09272081651005Q936.3033576339716 401.09272081651005 936.3033576339716 429.3753656994149L936.3033576339716 429.3753656994149L936.3033576339716 434.3932543076722L877.1620394917303 480.14459161825357Q878.4768873088673 487.87267674754827 886.3123069538466 487.87267674754827L886.3123069538466 487.87267674754827L907.9938791221456 487.87267674754827Q917.4393165023947 487.87267674754827 917.4393165023947 476.5488853428178L917.4393165023947 476.5488853428178L917.4393165023947 471.5578303634817L935.364180621731 463.07840362439447L936.3033576339716 463.07840362439447L936.3033576339716 476.5488853428178Q936.3033576339716 504.85836385464387 907.9938791221456 504.85836385464387L907.9938791221456 504.85836385464387ZM876.8668695735976 429.3753656994149L876.8668695735976 460.4218743611994L917.33198198671 427.79218159306635Q916.7684757793656 418.07840792360565 907.9938791221456 418.07840792360565L907.9938791221456 418.07840792360565L886.3123069538466 418.07840792360565Q876.8668695735976 418.07840792360565 876.8668695735976 429.3753656994149L876.8668695735976 429.3753656994149ZM987.8239251626029 508.6419055325277L986.857914521441 508.6419055325277L950.4446800754241 405.0372642679209L966.7863600884117 397.3091791386262L967.7255371006523 397.3091791386262L994.4249978772087 475.9853791354734L1020.5341188174995 397.3091791386262L1021.5001294586613 397.3091791386262L1037.814975842728 405.0372642679209L1004.1387715466693 500.8869867743119L987.8239251626029 508.6419055325277ZM1101.947348964305 504.85836385464387L1080.2657767960063 504.85836385464387Q1051.9562982841803 504.85836385464387 1051.9562982841803 476.5488853428178L1051.9562982841803 476.5488853428178L1051.9562982841803 429.3753656994149Q1051.9562982841803 401.09272081651005 1080.2657767960063 401.09272081651005L1080.2657767960063 401.09272081651005L1101.947348964305 401.09272081651005Q1130.256827476131 401.09272081651005 1130.256827476131 429.3753656994149L1130.256827476131 429.3753656994149L1130.256827476131 434.3932543076722L1071.1155093338898 480.14459161825357Q1072.4303571510268 487.87267674754827 1080.2657767960063 487.87267674754827L1080.2657767960063 487.87267674754827L1101.947348964305 487.87267674754827Q1111.3927863445542 487.87267674754827 1111.3927863445542 476.5488853428178L1111.3927863445542 476.5488853428178L1111.3927863445542 471.5578303634817L1129.3176504638905 463.07840362439447L1130.256827476131 463.07840362439447L1130.256827476131 476.5488853428178Q1130.256827476131 504.85836385464387 1101.947348964305 504.85836385464387L1101.947348964305 504.85836385464387ZM1070.8203394157572 429.3753656994149L1070.8203394157572 460.4218743611994L1111.312285457791 427.79218159306635Q1110.7219456215253 418.07840792360565 1101.947348964305 418.07840792360565L1101.947348964305 418.07840792360565L1080.2657767960063 418.07840792360565Q1070.8203394157572 418.07840792360565 1070.8203394157572 429.3753656994149L1070.8203394157572 429.3753656994149ZM1237.13517146912 442.2286739526515L1158.566305987957 442.2286739526515L1158.566305987957 441.2626633114897L1166.2138902304882 425.0551514431078L1244.7827557116511 425.0551514431078L1244.7827557116511 425.99432845534847L1237.13517146912 442.2286739526515ZM1300.7308720122737 508.6419055325277L1299.791695000033 508.6419055325277L1299.791695000033 379.57215042173806L1259.4070834736845 379.57215042173806L1259.4070834736845 378.63297340949737L1267.0546677162156 362.3986279121943L1359.040347657959 362.3986279121943L1359.040347657959 363.36463855335614L1351.392763415428 379.57215042173806L1318.6557361316104 379.57215042173806L1318.6557361316104 500.1356451645193L1300.7308720122737 508.6419055325277ZM1384.9616331958014 487.87267674754827L1384.9616331958014 487.87267674754827L1406.670038993022 487.87267674754827Q1416.1154763732707 487.87267674754827 1416.1154763732707 476.5488853428178L1416.1154763732707 476.5488853428178L1416.1154763732707 429.3753656994149Q1416.1154763732707 418.07840792360565 1406.670038993022 418.07840792360565L1406.670038993022 418.07840792360565L1384.9616331958014 418.07840792360565Q1375.5430294444736 418.07840792360565 1375.5430294444736 429.3753656994149L1375.5430294444736 429.3753656994149L1375.5430294444736 476.5488853428178Q1375.5430294444736 487.87267674754827 1384.9616331958014 487.87267674754827ZM1406.670038993022 504.85836385464387L1384.9616331958014 504.85836385464387Q1356.6789883128968 504.85836385464387 1356.6789883128968 476.5488853428178L1356.6789883128968 476.5488853428178L1356.6789883128968 429.3753656994149Q1356.6789883128968 401.09272081651005 1384.9616331958014 401.09272081651005L1384.9616331958014 401.09272081651005L1406.670038993022 401.09272081651005Q1434.979517504848 401.09272081651005 1434.979517504848 429.3753656994149L1434.979517504848 429.3753656994149L1434.979517504848 476.5488853428178Q1434.979517504848 504.85836385464387 1406.670038993022 504.85836385464387L1406.670038993022 504.85836385464387ZM1513.2800466967988 504.85836385464387L1491.5716408995786 504.85836385464387Q1463.2621623877526 504.85836385464387 1463.2621623877526 476.5488853428178L1463.2621623877526 476.5488853428178L1463.2621623877526 405.81543950663456L1481.1870265070888 397.3091791386262L1482.12620351933 397.3091791386262L1482.12620351933 476.5488853428178Q1482.12620351933 487.87267674754827 1491.5716408995786 487.87267674754827L1491.5716408995786 487.87267674754827L1513.2800466967988 487.87267674754827Q1522.698650448127 487.87267674754827 1522.698650448127 476.5488853428178L1522.698650448127 476.5488853428178L1522.698650448127 405.81543950663456L1540.6235145674627 397.3091791386262L1541.5626915797034 397.3091791386262L1541.5626915797034 476.5488853428178Q1541.5626915797034 504.85836385464387 1513.2800466967988 504.85836385464387L1513.2800466967988 504.85836385464387ZM1570.8113471037705 508.6419055325277L1569.8721700915298 508.6419055325277L1569.8721700915298 429.3753656994149Q1569.8721700915298 401.09272081651005 1598.1816486033558 401.09272081651005L1598.1816486033558 401.09272081651005L1621.7684084250573 401.09272081651005L1621.7684084250573 402.0318978287507L1614.2013250692894 418.07840792360565L1598.1816486033558 418.07840792360565Q1588.7362112231067 418.07840792360565 1588.7362112231067 429.3753656994149L1588.7362112231067 429.3753656994149L1588.7362112231067 500.1356451645193L1570.8113471037705 508.6419055325277ZM1684.9616045343937 504.85836385464387L1663.253198737174 504.85836385464387Q1634.970553854269 504.85836385464387 1634.970553854269 476.5488853428178L1634.970553854269 476.5488853428178L1634.970553854269 473.1678480987514L1652.8954179736052 464.661587730743L1653.8345949858458 464.661587730743L1653.8345949858458 476.5488853428178Q1653.8345949858458 487.87267674754827 1663.253198737174 487.87267674754827L1663.253198737174 487.87267674754827L1684.9616045343937 487.87267674754827Q1694.4070419146428 487.87267674754827 1694.4070419146428 476.5488853428178L1694.4070419146428 476.5488853428178L1694.4070419146428 469.11597013165596Q1694.4070419146428 457.79217872692556 1684.9616045343937 457.79217872692556L1684.9616045343937 457.79217872692556L1667.2245758175054 457.79217872692556Q1638.9150973056799 457.79217872692556 1638.9150973056799 429.3753656994149L1638.9150973056799 429.3753656994149Q1638.9150973056799 401.09272081651005 1667.2245758175054 401.09272081651005L1667.2245758175054 401.09272081651005L1678.2531973041032 401.09272081651005Q1706.5626758159292 401.09272081651005 1706.5626758159292 423.92813902841897L1706.5626758159292 423.92813902841897L1688.637811696593 432.4075657675062L1687.6986346843523 432.4075657675062L1687.6986346843523 429.3753656994149Q1687.6986346843523 418.07840792360565 1678.2531973041032 418.07840792360565L1678.2531973041032 418.07840792360565L1667.2245758175054 418.07840792360565Q1657.8059720661777 418.07840792360565 1657.8059720661777 429.3753656994149L1657.8059720661777 429.3753656994149Q1657.8059720661777 440.80649161982996 1667.2245758175054 440.80649161982996L1667.2245758175054 440.80649161982996L1684.9616045343937 440.80649161982996Q1713.2710830462197 440.80649161982996 1713.2710830462197 469.11597013165596L1713.2710830462197 469.11597013165596L1713.2710830462197 476.5488853428178Q1713.2710830462197 504.85836385464387 1684.9616045343937 504.85836385464387L1684.9616045343937 504.85836385464387Z " fill="#000000" transform="matrix(0.5107189778139852,0,0,0.5107189778139851,0,78.53085688349354)"/></g></svg>